<?xml version="1.0" encoding="UTF-8"?>
<!DOCTYPE svg PUBLIC "-//W3C//DTD SVG 1.1//EN" "http://www.w3.org/Graphics/SVG/1.1/DTD/svg11.dtd">
<svg xmlns="http://www.w3.org/2000/svg" version="1.1" width="630px" height="86px" style="shape-rendering:geometricPrecision; text-rendering:geometricPrecision; image-rendering:optimizeQuality; fill-rule:evenodd; clip-rule:evenodd" xmlns:xlink="http://www.w3.org/1999/xlink">
<g><path style="opacity:0.109" fill="#000000" d="M 21.5,7.5 C 32.8382,7.33348 44.1716,7.50014 55.5,8C 57.8383,8.83657 60.1716,9.6699 62.5,10.5C 64.8284,9.6699 67.1617,8.83657 69.5,8C 80.8333,7.33333 92.1667,7.33333 103.5,8C 106.5,10 109.5,10 112.5,8C 125.5,7.33333 138.5,7.33333 151.5,8C 153.838,8.83657 156.172,9.6699 158.5,10.5C 160.828,9.6699 163.162,8.83657 165.5,8C 176.833,7.33333 188.167,7.33333 199.5,8C 202.5,10 205.5,10 208.5,8C 221.5,7.33333 234.5,7.33333 247.5,8C 254.667,9.83333 259.167,14.3333 261,21.5C 261.667,37.1667 261.667,52.8333 261,68.5C 260.496,72.0202 258.663,74.5202 255.5,76C 251.252,77.0637 246.919,77.5637 242.5,77.5C 231.207,77.1955 219.874,77.0288 208.5,77C 205.5,75 202.5,75 199.5,77C 188.167,77.6667 176.833,77.6667 165.5,77C 164,76.5 162.5,76 161,75.5C 156.304,77.0116 151.471,77.6783 146.5,77.5C 103.206,77.1959 59.8729,77.0293 16.5,77C 11.7627,76.0518 8.92933,73.2185 8,68.5C 7.33333,52.8333 7.33333,37.1667 8,21.5C 10.0166,14.3185 14.5166,9.65179 21.5,7.5 Z"/></g>
<g><path style="opacity:0.118" fill="#000000" d="M 280.5,7.5 C 293.504,7.33344 306.504,7.50011 319.5,8C 321.838,8.83657 324.172,9.6699 326.5,10.5C 328.828,9.6699 331.162,8.83657 333.5,8C 344.833,7.33333 356.167,7.33333 367.5,8C 369,8.5 370.5,9 372,9.5C 376.696,7.98841 381.529,7.32175 386.5,7.5C 461.783,7.48266 537.116,7.64933 612.5,8C 615.664,8.9919 618.164,10.8252 620,13.5C 622.21,20.3068 621.877,26.9735 619,33.5C 615.106,36.7413 610.606,38.0747 605.5,37.5C 605.5,40.8333 605.5,44.1667 605.5,47.5C 619.306,47.7038 624.473,54.7038 621,68.5C 620.496,72.0202 618.663,74.5202 615.5,76C 599.901,77.6196 584.234,77.953 568.5,77C 565.308,75.9062 562.642,74.0728 560.5,71.5C 558.358,74.0728 555.692,75.9062 552.5,77C 545.833,77.6667 539.167,77.6667 532.5,77C 527.763,76.0518 524.929,73.2185 524,68.5C 523.5,58.172 523.334,47.8387 523.5,37.5C 520.167,36.1667 516.833,36.1667 513.5,37.5C 513.666,47.8387 513.5,58.172 513,68.5C 512.071,73.2185 509.237,76.0518 504.5,77C 497.833,77.6667 491.167,77.6667 484.5,77C 481.308,75.9062 478.642,74.0728 476.5,71.5C 474.358,74.0728 471.692,75.9062 468.5,77C 453.833,77.6667 439.167,77.6667 424.5,77C 421.308,75.9062 418.642,74.0728 416.5,71.5C 414.358,74.0728 411.692,75.9062 408.5,77C 401.833,77.6667 395.167,77.6667 388.5,77C 385.308,75.9062 382.642,74.0728 380.5,71.5C 378.358,74.0728 375.692,75.9062 372.5,77C 357.833,76.3333 343.167,76.3333 328.5,77C 325.336,76.0081 322.836,74.1748 321,71.5C 319.691,66.9342 319.191,62.2675 319.5,57.5C 316.167,57.5 312.833,57.5 309.5,57.5C 310.01,63.072 309.177,68.4053 307,73.5C 305.745,74.2106 304.579,75.044 303.5,76C 295.913,77.5625 288.246,77.8959 280.5,77C 275.763,76.0518 272.929,73.2185 272,68.5C 271.333,51.1667 271.333,33.8333 272,16.5C 273.181,11.8481 276.014,8.84813 280.5,7.5 Z M 468.5,36.5 C 470.861,36.6741 473.194,37.0074 475.5,37.5C 475.666,42.1785 475.499,46.8452 475,51.5C 471.106,48.2587 466.606,46.9253 461.5,47.5C 461.5,44.1667 461.5,40.8333 461.5,37.5C 464.059,37.8016 466.393,37.4682 468.5,36.5 Z"/></g>
<g><path style="opacity:1" fill="#9a17f4" d="M 254.5,23.5 C 253.221,22.032 251.554,21.3653 249.5,21.5C 250.416,36.4755 250.749,51.4755 250.5,66.5C 244.974,66.8214 239.64,66.4881 234.5,65.5C 239.5,65.5 244.5,65.5 249.5,65.5C 249.5,59.5 249.5,53.5 249.5,47.5C 249.5,45.5 249.5,43.5 249.5,41.5C 249.5,40.1667 249.5,38.8333 249.5,37.5C 249.5,36.1667 249.5,34.8333 249.5,33.5C 249.5,32.1667 249.5,30.8333 249.5,29.5C 244.167,29.5 238.833,29.5 233.5,29.5C 233.586,28.5041 233.252,27.6708 232.5,27C 230.527,26.5045 228.527,26.3379 226.5,26.5C 226.5,27.8333 226.5,29.1667 226.5,30.5C 225.596,29.791 225.263,28.791 225.5,27.5C 220.167,27.5 214.833,27.5 209.5,27.5C 209.5,28.5 209.5,29.5 209.5,30.5C 208.596,29.791 208.263,28.791 208.5,27.5C 206.5,27.5 204.5,27.5 202.5,27.5C 202.828,38.6794 202.495,49.6794 201.5,60.5C 201.5,54.1667 201.5,47.8333 201.5,41.5C 201.5,40.1667 201.5,38.8333 201.5,37.5C 201.5,36.1667 201.5,34.8333 201.5,33.5C 201.5,32.1667 201.5,30.8333 201.5,29.5C 196.167,29.5 190.833,29.5 185.5,29.5C 184.031,25.9316 181.864,25.5983 179,28.5C 178.5,37.4938 178.334,46.4938 178.5,55.5C 177.514,51.03 177.181,46.3633 177.5,41.5C 177.5,40.1667 177.5,38.8333 177.5,37.5C 177.5,36.1667 177.5,34.8333 177.5,33.5C 177.5,32.1667 177.5,30.8333 177.5,29.5C 172.167,29.5 166.833,29.5 161.5,29.5C 161.5,30.8333 161.5,32.1667 161.5,33.5C 161.5,34.8333 161.5,36.1667 161.5,37.5C 161.5,37.8333 161.5,38.1667 161.5,38.5C 159.167,38.5 156.833,38.5 154.5,38.5C 154.567,39.9587 154.234,41.2921 153.5,42.5C 152.662,42.1583 152.328,41.4916 152.5,40.5C 153.451,39.0813 153.784,37.4147 153.5,35.5C 153.5,33.5 153.5,31.5 153.5,29.5C 148.167,29.5 142.833,29.5 137.5,29.5C 137.893,32.5133 137.226,35.1799 135.5,37.5C 132.918,37.9746 130.918,37.3079 129.5,35.5C 129.5,34.1667 129.5,32.8333 129.5,31.5C 129.5,30.1667 129.5,28.8333 129.5,27.5C 124.167,27.5 118.833,27.5 113.5,27.5C 113.5,28.8333 113.5,30.1667 113.5,31.5C 113.5,32.8333 113.5,34.1667 113.5,35.5C 113.5,35.8333 113.5,36.1667 113.5,36.5C 111.283,35.6314 108.95,35.298 106.5,35.5C 106.5,45.8333 106.5,56.1667 106.5,66.5C 100.974,66.8214 95.6405,66.4881 90.5,65.5C 95.5,65.5 100.5,65.5 105.5,65.5C 105.5,59.5 105.5,53.5 105.5,47.5C 105.5,45.5 105.5,43.5 105.5,41.5C 105.5,40.1667 105.5,38.8333 105.5,37.5C 105.5,36.1667 105.5,34.8333 105.5,33.5C 105.5,32.1667 105.5,30.8333 105.5,29.5C 100.167,29.5 94.8333,29.5 89.5,29.5C 89.5,30.8333 89.5,32.1667 89.5,33.5C 89.5,34.8333 89.5,36.1667 89.5,37.5C 86.3019,38.0356 83.6353,37.369 81.5,35.5C 81.5,34.1667 81.5,32.8333 81.5,31.5C 81.5,30.1667 81.5,28.8333 81.5,27.5C 76.1667,27.5 70.8333,27.5 65.5,27.5C 65.5,28.8333 65.5,30.1667 65.5,31.5C 65.5,31.8333 65.5,32.1667 65.5,32.5C 63.283,31.6314 60.9496,31.298 58.5,31.5C 58.5,43.1667 58.5,54.8333 58.5,66.5C 52.9738,66.8214 47.6405,66.4881 42.5,65.5C 47.5,65.5 52.5,65.5 57.5,65.5C 57.5,59.5 57.5,53.5 57.5,47.5C 57.5,45.5 57.5,43.5 57.5,41.5C 57.5,40.1667 57.5,38.8333 57.5,37.5C 57.5,36.1667 57.5,34.8333 57.5,33.5C 57.5,32.1667 57.5,30.8333 57.5,29.5C 52.1667,29.5 46.8333,29.5 41.5,29.5C 41.5,30.8333 41.5,32.1667 41.5,33.5C 41.5,34.8333 41.5,36.1667 41.5,37.5C 38.3019,38.0356 35.6353,37.369 33.5,35.5C 33.5,34.1667 33.5,32.8333 33.5,31.5C 33.5,30.1667 33.5,28.8333 33.5,27.5C 28.1667,27.5 22.8333,27.5 17.5,27.5C 16.5386,25.7354 16.2053,23.7354 16.5,21.5C 15.1667,21.5 13.8333,21.5 12.5,21.5C 13.5237,17.6381 15.8571,14.8048 19.5,13C 31.5,12.3333 43.5,12.3333 55.5,13C 57.6414,14.3076 59.6414,15.8076 61.5,17.5C 63.3586,15.8076 65.3586,14.3076 67.5,13C 79.5,12.3333 91.5,12.3333 103.5,13C 105.286,13.7845 106.786,14.9512 108,16.5C 108.833,15 110,13.8333 111.5,13C 124.833,12.3333 138.167,12.3333 151.5,13C 153.641,14.3076 155.641,15.8076 157.5,17.5C 159.359,15.8076 161.359,14.3076 163.5,13C 175.5,12.3333 187.5,12.3333 199.5,13C 201.286,13.7845 202.786,14.9512 204,16.5C 204.833,15 206,13.8333 207.5,13C 220.833,12.3333 234.167,12.3333 247.5,13C 252.065,15.0561 254.398,18.5561 254.5,23.5 Z"/></g>
<g><path style="opacity:1" fill="#9b14f8" d="M 598.5,38.5 C 597.167,38.5 595.833,38.5 594.5,38.5C 594.806,41.3854 594.473,44.0521 593.5,46.5C 593.5,46.1667 593.5,45.8333 593.5,45.5C 593.5,43.8333 593.5,42.1667 593.5,40.5C 593.5,39.5 593.5,38.5 593.5,37.5C 590.833,37.5 588.167,37.5 585.5,37.5C 585.5,36.1667 585.5,34.8333 585.5,33.5C 585.5,32.1667 585.5,30.8333 585.5,29.5C 580.167,29.5 574.833,29.5 569.5,29.5C 569.5,30.8333 569.5,32.1667 569.5,33.5C 569.5,34.5 569.5,35.5 569.5,36.5C 567.958,35.6993 566.292,35.366 564.5,35.5C 564.662,33.4727 564.495,31.4727 564,29.5C 560.73,30.132 557.563,30.7986 554.5,31.5C 553.167,31.5 551.833,31.5 550.5,31.5C 550.5,43.1667 550.5,54.8333 550.5,66.5C 544.974,66.8214 539.64,66.4881 534.5,65.5C 539.5,65.5 544.5,65.5 549.5,65.5C 549.5,59.5 549.5,53.5 549.5,47.5C 549.5,46.1667 549.5,44.8333 549.5,43.5C 549.5,42.1667 549.5,40.8333 549.5,39.5C 549.5,38.1667 549.5,36.8333 549.5,35.5C 549.5,34.1667 549.5,32.8333 549.5,31.5C 549.5,30.1667 549.5,28.8333 549.5,27.5C 544.167,27.5 538.833,27.5 533.5,27.5C 533.5,28.8333 533.5,30.1667 533.5,31.5C 533.5,32.8333 533.5,34.1667 533.5,35.5C 533.5,35.8333 533.5,36.1667 533.5,36.5C 531.958,35.6993 530.292,35.366 528.5,35.5C 528.5,33.8333 528.5,32.1667 528.5,30.5C 521.167,29.1667 513.833,29.1667 506.5,30.5C 506.5,32.1667 506.5,33.8333 506.5,35.5C 505.167,35.5 503.833,35.5 502.5,35.5C 502.5,45.8333 502.5,56.1667 502.5,66.5C 496.5,66.5 490.5,66.5 484.5,66.5C 484.5,60.8333 484.5,55.1667 484.5,49.5C 483.167,49.5 481.833,49.5 480.5,49.5C 480.5,43.1667 480.5,36.8333 480.5,30.5C 469.184,29.7522 457.851,30.0856 446.5,31.5C 451.323,31.553 453.99,33.8864 454.5,38.5C 453.167,38.5 451.833,38.5 450.5,38.5C 450.806,41.3854 450.473,44.0521 449.5,46.5C 449.5,46.1667 449.5,45.8333 449.5,45.5C 449.5,43.8333 449.5,42.1667 449.5,40.5C 449.5,39.5 449.5,38.5 449.5,37.5C 446.833,37.5 444.167,37.5 441.5,37.5C 441.5,36.1667 441.5,34.8333 441.5,33.5C 441.5,32.1667 441.5,30.8333 441.5,29.5C 436.167,29.5 430.833,29.5 425.5,29.5C 425.665,25.8183 425.499,22.1516 425,18.5C 422.599,17.3977 420.099,17.231 417.5,18C 418.827,25.9317 418.827,33.7651 417.5,41.5C 417.5,41.1667 417.5,40.8333 417.5,40.5C 417.5,38.8333 417.5,37.1667 417.5,35.5C 417.5,33.5 417.5,31.5 417.5,29.5C 412.167,29.5 406.833,29.5 401.5,29.5C 401.893,32.5133 401.226,35.1799 399.5,37.5C 397.142,37.7475 395.142,37.0808 393.5,35.5C 393.5,34.1667 393.5,32.8333 393.5,31.5C 393.5,30.1667 393.5,28.8333 393.5,27.5C 388.167,27.5 382.833,27.5 377.5,27.5C 377.5,28.5 377.5,29.5 377.5,30.5C 376.596,29.791 376.263,28.791 376.5,27.5C 374.5,27.5 372.5,27.5 370.5,27.5C 370.5,40.5 370.5,53.5 370.5,66.5C 364.974,66.8214 359.64,66.4881 354.5,65.5C 359.5,65.5 364.5,65.5 369.5,65.5C 369.5,59.5 369.5,53.5 369.5,47.5C 369.5,45.5 369.5,43.5 369.5,41.5C 369.5,40.1667 369.5,38.8333 369.5,37.5C 369.5,36.1667 369.5,34.8333 369.5,33.5C 369.5,32.1667 369.5,30.8333 369.5,29.5C 364.167,29.5 358.833,29.5 353.5,29.5C 353.5,30.8333 353.5,32.1667 353.5,33.5C 353.5,34.8333 353.5,36.1667 353.5,37.5C 350.302,38.0356 347.635,37.369 345.5,35.5C 345.5,34.1667 345.5,32.8333 345.5,31.5C 345.5,30.1667 345.5,28.8333 345.5,27.5C 340.167,27.5 334.833,27.5 329.5,27.5C 328.539,25.7354 328.205,23.7354 328.5,21.5C 326.167,21.5 323.833,21.5 321.5,21.5C 321.5,23.1667 321.5,24.8333 321.5,26.5C 316.36,27.4881 311.026,27.8214 305.5,27.5C 305.5,28.8333 305.5,30.1667 305.5,31.5C 305.747,33.8583 305.081,35.8583 303.5,37.5C 300.918,37.9746 298.918,37.3079 297.5,35.5C 297.5,34.1667 297.5,32.8333 297.5,31.5C 297.5,30.1667 297.5,28.8333 297.5,27.5C 292.167,27.5 286.833,27.5 281.5,27.5C 281.5,28.8333 281.5,30.1667 281.5,31.5C 281.5,32.8333 281.5,34.1667 281.5,35.5C 281.5,35.8333 281.5,36.1667 281.5,36.5C 279.958,35.6993 278.292,35.366 276.5,35.5C 276.334,28.825 276.5,22.1583 277,15.5C 277.5,14.3333 278.333,13.5 279.5,13C 292.833,12.3333 306.167,12.3333 319.5,13C 321.641,14.3076 323.641,15.8076 325.5,17.5C 327.359,15.8076 329.359,14.3076 331.5,13C 343.5,12.3333 355.5,12.3333 367.5,13C 369.286,13.7845 370.786,14.9512 372,16.5C 372.833,15 374,13.8333 375.5,13C 378.833,12.8333 382.167,12.6667 385.5,12.5C 453.449,12.6841 521.449,12.6841 589.5,12.5C 596.833,12.6667 604.167,12.8333 611.5,13C 612.667,13.5 613.5,14.3333 614,15.5C 614.667,19.5 614.667,23.5 614,27.5C 613.692,28.3081 613.192,28.9747 612.5,29.5C 605.192,30.1349 597.859,30.8016 590.5,31.5C 595.323,31.553 597.99,33.8864 598.5,38.5 Z M 468.5,36.5 C 466.393,37.4682 464.059,37.8016 461.5,37.5C 461.5,40.8333 461.5,44.1667 461.5,47.5C 466.606,46.9253 471.106,48.2587 475,51.5C 475.499,46.8452 475.666,42.1785 475.5,37.5C 473.194,37.0074 470.861,36.6741 468.5,36.5 Z"/></g>
<g><path style="opacity:1" fill="#9d5dff" d="M 297.5,31.5 C 292.167,31.5 286.833,31.5 281.5,31.5C 281.5,30.1667 281.5,28.8333 281.5,27.5C 286.833,27.5 292.167,27.5 297.5,27.5C 297.5,28.8333 297.5,30.1667 297.5,31.5 Z"/></g>
<g><path style="opacity:1" fill="#9050ee" d="M 321.5,26.5 C 322.65,31.3158 322.816,36.3158 322,41.5C 320.841,44.4934 318.675,46.1601 315.5,46.5C 315.5,46.1667 315.5,45.8333 315.5,45.5C 316.167,45.1667 316.833,44.8333 317.5,44.5C 319.262,43.7377 320.262,42.4044 320.5,40.5C 321.451,39.0813 321.784,37.4147 321.5,35.5C 321.5,34.1667 321.5,32.8333 321.5,31.5C 316.167,31.5 310.833,31.5 305.5,31.5C 305.5,30.1667 305.5,28.8333 305.5,27.5C 311.026,27.8214 316.36,27.4881 321.5,26.5 Z"/></g>
<g><path style="opacity:1" fill="#9d5dff" d="M 501.5,31.5 C 496.167,31.5 490.833,31.5 485.5,31.5C 485.5,30.1667 485.5,28.8333 485.5,27.5C 490.833,27.5 496.167,27.5 501.5,27.5C 501.5,28.8333 501.5,30.1667 501.5,31.5 Z"/></g>
<g><path style="opacity:1" fill="#9d5dff" d="M 549.5,31.5 C 544.167,31.5 538.833,31.5 533.5,31.5C 533.5,30.1667 533.5,28.8333 533.5,27.5C 538.833,27.5 544.167,27.5 549.5,27.5C 549.5,28.8333 549.5,30.1667 549.5,31.5 Z"/></g>
<g><path style="opacity:1" fill="#9974ff" d="M 425.5,29.5 C 430.833,29.5 436.167,29.5 441.5,29.5C 441.5,30.8333 441.5,32.1667 441.5,33.5C 436.167,33.5 430.833,33.5 425.5,33.5C 425.5,32.1667 425.5,30.8333 425.5,29.5 Z"/></g>
<g><path style="opacity:1" fill="#9974ff" d="M 585.5,33.5 C 580.167,33.5 574.833,33.5 569.5,33.5C 569.5,32.1667 569.5,30.8333 569.5,29.5C 574.833,29.5 580.167,29.5 585.5,29.5C 585.5,30.8333 585.5,32.1667 585.5,33.5 Z"/></g>
<g><path style="opacity:1" fill="#958aff" d="M 281.5,31.5 C 286.833,31.5 292.167,31.5 297.5,31.5C 297.5,32.8333 297.5,34.1667 297.5,35.5C 292.167,35.5 286.833,35.5 281.5,35.5C 281.5,34.1667 281.5,32.8333 281.5,31.5 Z"/></g>
<g><path style="opacity:1" fill="#988bff" d="M 305.5,31.5 C 310.833,31.5 316.167,31.5 321.5,31.5C 321.5,32.8333 321.5,34.1667 321.5,35.5C 315.252,34.9781 309.252,35.6448 303.5,37.5C 305.081,35.8583 305.747,33.8583 305.5,31.5 Z"/></g>
<g><path style="opacity:1" fill="#958aff" d="M 485.5,31.5 C 490.833,31.5 496.167,31.5 501.5,31.5C 501.5,32.8333 501.5,34.1667 501.5,35.5C 496.167,35.5 490.833,35.5 485.5,35.5C 485.5,34.1667 485.5,32.8333 485.5,31.5 Z"/></g>
<g><path style="opacity:1" fill="#958aff" d="M 533.5,31.5 C 538.833,31.5 544.167,31.5 549.5,31.5C 549.5,32.8333 549.5,34.1667 549.5,35.5C 544.167,35.5 538.833,35.5 533.5,35.5C 533.5,34.1667 533.5,32.8333 533.5,31.5 Z"/></g>
<g><path style="opacity:1" fill="#92a0ff" d="M 425.5,33.5 C 430.833,33.5 436.167,33.5 441.5,33.5C 441.5,34.8333 441.5,36.1667 441.5,37.5C 436.167,37.5 430.833,37.5 425.5,37.5C 425.5,36.1667 425.5,34.8333 425.5,33.5 Z"/></g>
<g><path style="opacity:1" fill="#92a0ff" d="M 569.5,33.5 C 574.833,33.5 580.167,33.5 585.5,33.5C 585.5,34.8333 585.5,36.1667 585.5,37.5C 580.167,37.5 574.833,37.5 569.5,37.5C 569.5,37.1667 569.5,36.8333 569.5,36.5C 569.5,35.5 569.5,34.5 569.5,33.5 Z"/></g>
<g><path style="opacity:1" fill="#8db6ff" d="M 485.5,35.5 C 490.833,35.5 496.167,35.5 501.5,35.5C 501.5,36.8333 501.5,38.1667 501.5,39.5C 496.167,39.5 490.833,39.5 485.5,39.5C 485.5,38.1667 485.5,36.8333 485.5,35.5 Z"/></g>
<g><path style="opacity:1" fill="#8dccff" d="M 425.5,37.5 C 430.833,37.5 436.167,37.5 441.5,37.5C 444.167,37.5 446.833,37.5 449.5,37.5C 449.5,38.5 449.5,39.5 449.5,40.5C 441.586,41.4672 433.586,41.8005 425.5,41.5C 425.5,40.1667 425.5,38.8333 425.5,37.5 Z"/></g>
<g><path style="opacity:1" fill="#8dccff" d="M 569.5,37.5 C 574.833,37.5 580.167,37.5 585.5,37.5C 588.167,37.5 590.833,37.5 593.5,37.5C 593.5,38.5 593.5,39.5 593.5,40.5C 585.586,41.4672 577.586,41.8005 569.5,41.5C 569.5,40.1667 569.5,38.8333 569.5,37.5 Z"/></g>
<g><path style="opacity:1" fill="#86e2ff" d="M 485.5,39.5 C 490.833,39.5 496.167,39.5 501.5,39.5C 501.5,40.8333 501.5,42.1667 501.5,43.5C 496.167,43.5 490.833,43.5 485.5,43.5C 485.5,42.1667 485.5,40.8333 485.5,39.5 Z"/></g>
<g><path style="opacity:1" fill="#6bfefc" d="M 485.5,43.5 C 490.833,43.5 496.167,43.5 501.5,43.5C 501.5,44.8333 501.5,46.1667 501.5,47.5C 500.511,52.9753 500.178,58.642 500.5,64.5C 495.637,64.1805 490.97,64.5139 486.5,65.5C 485.508,58.3524 485.175,51.0191 485.5,43.5 Z"/></g>
<g><path style="opacity:1" fill="#3ffe82" d="M 501.5,47.5 C 501.5,53.5 501.5,59.5 501.5,65.5C 496.5,65.5 491.5,65.5 486.5,65.5C 490.97,64.5139 495.637,64.1805 500.5,64.5C 500.178,58.642 500.511,52.9753 501.5,47.5 Z"/></g>
<g><path style="opacity:1" fill="#5300f8" d="M 12.5,21.5 C 13.8333,21.5 15.1667,21.5 16.5,21.5C 16.2053,23.7354 16.5386,25.7354 17.5,27.5C 17.5,28.8333 17.5,30.1667 17.5,31.5C 17.5,32.8333 17.5,34.1667 17.5,35.5C 17.5,36.5 17.5,37.5 17.5,38.5C 17.5,39.8333 17.5,41.1667 17.5,42.5C 17.1746,50.3516 17.508,58.0182 18.5,65.5C 23.6405,66.4881 28.9738,66.8214 34.5,66.5C 34.5,59.8333 34.5,53.1667 34.5,46.5C 36.8333,46.5 39.1667,46.5 41.5,46.5C 41.1765,53.0221 41.5098,59.3554 42.5,65.5C 47.6405,66.4881 52.9738,66.8214 58.5,66.5C 58.5,54.8333 58.5,43.1667 58.5,31.5C 60.9496,31.298 63.283,31.6314 65.5,32.5C 65.5,33.5 65.5,34.5 65.5,35.5C 65.5,36.5 65.5,37.5 65.5,38.5C 65.5,39.8333 65.5,41.1667 65.5,42.5C 65.1746,50.3516 65.508,58.0182 66.5,65.5C 71.6405,66.4881 76.9738,66.8214 82.5,66.5C 82.5,59.8333 82.5,53.1667 82.5,46.5C 84.8333,46.5 87.1667,46.5 89.5,46.5C 89.1765,53.0221 89.5098,59.3554 90.5,65.5C 95.6405,66.4881 100.974,66.8214 106.5,66.5C 106.5,56.1667 106.5,45.8333 106.5,35.5C 108.95,35.298 111.283,35.6314 113.5,36.5C 113.5,37.8333 113.5,39.1667 113.5,40.5C 113.5,41.8333 113.5,43.1667 113.5,44.5C 113.175,51.6866 113.509,58.6866 114.5,65.5C 119.64,66.4881 124.974,66.8214 130.5,66.5C 130.5,59.8333 130.5,53.1667 130.5,46.5C 132.167,46.5 133.833,46.5 135.5,46.5C 136.117,46.6107 136.617,46.944 137,47.5C 137.172,53.6807 137.672,59.6807 138.5,65.5C 143.64,66.4881 148.974,66.8214 154.5,66.5C 154.825,58.6484 154.492,50.9818 153.5,43.5C 153.5,43.1667 153.5,42.8333 153.5,42.5C 154.234,41.2921 154.567,39.9587 154.5,38.5C 156.833,38.5 159.167,38.5 161.5,38.5C 161.5,39.5 161.5,40.5 161.5,41.5C 161.334,47.8421 161.5,54.1754 162,60.5C 163.076,63.079 164.909,64.7457 167.5,65.5C 177.172,65.6665 186.839,65.4998 196.5,65C 198.751,64.2525 200.084,62.7525 200.5,60.5C 200.833,60.5 201.167,60.5 201.5,60.5C 202.495,49.6794 202.828,38.6794 202.5,27.5C 204.5,27.5 206.5,27.5 208.5,27.5C 208.263,28.791 208.596,29.791 209.5,30.5C 209.5,30.8333 209.5,31.1667 209.5,31.5C 209.5,32.8333 209.5,34.1667 209.5,35.5C 209.5,36.8333 209.5,38.1667 209.5,39.5C 209.5,40.8333 209.5,42.1667 209.5,43.5C 209.175,51.0191 209.508,58.3524 210.5,65.5C 215.64,66.4881 220.974,66.8214 226.5,66.5C 226.5,54.5 226.5,42.5 226.5,30.5C 226.5,29.1667 226.5,27.8333 226.5,26.5C 228.527,26.3379 230.527,26.5045 232.5,27C 233.252,27.6708 233.586,28.5041 233.5,29.5C 233.5,30.8333 233.5,32.1667 233.5,33.5C 233.5,34.8333 233.5,36.1667 233.5,37.5C 233.5,38.8333 233.5,40.1667 233.5,41.5C 233.174,49.6841 233.508,57.6841 234.5,65.5C 239.64,66.4881 244.974,66.8214 250.5,66.5C 250.749,51.4755 250.416,36.4755 249.5,21.5C 251.554,21.3653 253.221,22.032 254.5,23.5C 254.667,38.1705 254.5,52.8371 254,67.5C 253.5,68.6667 252.667,69.5 251.5,70C 236.833,69.3333 222.167,69.3333 207.5,70C 206,69.1667 204.833,68 204,66.5C 202.421,68.0412 200.587,69.2078 198.5,70C 186.833,70.6667 175.167,70.6667 163.5,70C 161.714,69.2155 160.214,68.0488 159,66.5C 158.167,68 157,69.1667 155.5,70C 152.167,70.1667 148.833,70.3333 145.5,70.5C 105.5,69.1667 65.5,69.1667 25.5,70.5C 22.1667,70.3333 18.8333,70.1667 15.5,70C 14.3333,69.5 13.5,68.6667 13,67.5C 12.5001,52.1703 12.3334,36.837 12.5,21.5 Z"/></g>
<g><path style="opacity:1" fill="#18062b" d="M 153.5,43.5 C 154.492,50.9818 154.825,58.6484 154.5,66.5C 148.974,66.8214 143.64,66.4881 138.5,65.5C 143.5,65.5 148.5,65.5 153.5,65.5C 153.5,59.8333 153.5,54.1667 153.5,48.5C 153.5,47.1667 153.5,45.8333 153.5,44.5C 153.5,44.1667 153.5,43.8333 153.5,43.5 Z"/></g>
<g><path style="opacity:1" fill="#24f32e" d="M 200.5,60.5 C 200.084,62.7525 198.751,64.2525 196.5,65C 186.839,65.4998 177.172,65.6665 167.5,65.5C 176.658,64.6701 185.991,64.1701 195.5,64C 197.667,63.1667 199.167,61.6667 200,59.5C 200.399,59.7284 200.565,60.0618 200.5,60.5 Z"/></g>
<g><path style="opacity:1" fill="#3ffe82" d="M 249.5,47.5 C 249.5,53.5 249.5,59.5 249.5,65.5C 244.5,65.5 239.5,65.5 234.5,65.5C 238.97,64.5139 243.637,64.1805 248.5,64.5C 248.178,58.642 248.511,52.9753 249.5,47.5 Z"/></g>
<g><path style="opacity:1" fill="#3ffe82" d="M 225.5,47.5 C 225.5,53.5 225.5,59.5 225.5,65.5C 220.5,65.5 215.5,65.5 210.5,65.5C 214.97,64.5139 219.637,64.1805 224.5,64.5C 224.178,58.642 224.511,52.9753 225.5,47.5 Z"/></g>
<g><path style="opacity:1" fill="#3ffe82" d="M 105.5,47.5 C 105.5,53.5 105.5,59.5 105.5,65.5C 100.5,65.5 95.5,65.5 90.5,65.5C 94.97,64.5139 99.6367,64.1805 104.5,64.5C 104.178,58.642 104.511,52.9753 105.5,47.5 Z"/></g>
<g><path style="opacity:1" fill="#3ffe82" d="M 57.5,47.5 C 57.5,53.5 57.5,59.5 57.5,65.5C 52.5,65.5 47.5,65.5 42.5,65.5C 46.97,64.5139 51.6367,64.1805 56.5,64.5C 56.1778,58.642 56.5111,52.9753 57.5,47.5 Z"/></g>
<g><path style="opacity:1" fill="#3efe7f" d="M 153.5,48.5 C 153.5,54.1667 153.5,59.8333 153.5,65.5C 148.5,65.5 143.5,65.5 138.5,65.5C 142.97,64.5139 147.637,64.1805 152.5,64.5C 152.179,58.9738 152.512,53.6405 153.5,48.5 Z"/></g>
<g><path style="opacity:1" fill="#69fefb" d="M 233.5,41.5 C 238.833,41.5 244.167,41.5 249.5,41.5C 249.5,43.5 249.5,45.5 249.5,47.5C 248.511,52.9753 248.178,58.642 248.5,64.5C 243.637,64.1805 238.97,64.5139 234.5,65.5C 233.508,57.6841 233.174,49.6841 233.5,41.5 Z"/></g>
<g><path style="opacity:1" fill="#6bfefc" d="M 209.5,43.5 C 214.833,43.5 220.167,43.5 225.5,43.5C 225.5,44.8333 225.5,46.1667 225.5,47.5C 224.511,52.9753 224.178,58.642 224.5,64.5C 219.637,64.1805 214.97,64.5139 210.5,65.5C 209.508,58.3524 209.175,51.0191 209.5,43.5 Z"/></g>
<g><path style="opacity:1" fill="#6afcf7" d="M 161.5,41.5 C 166.833,41.5 172.167,41.5 177.5,41.5C 177.181,46.3633 177.514,51.03 178.5,55.5C 180.54,58.1339 182.707,58.1339 185,55.5C 185.499,50.8452 185.666,46.1785 185.5,41.5C 190.833,41.5 196.167,41.5 201.5,41.5C 201.5,47.8333 201.5,54.1667 201.5,60.5C 201.167,60.5 200.833,60.5 200.5,60.5C 200.565,60.0618 200.399,59.7284 200,59.5C 199.167,61.6667 197.667,63.1667 195.5,64C 185.991,64.1701 176.658,64.6701 167.5,65.5C 164.909,64.7457 163.076,63.079 162,60.5C 161.5,54.1754 161.334,47.8421 161.5,41.5 Z"/></g>
<g><path style="opacity:1" fill="#1d0846" d="M 135.5,46.5 C 133.833,46.5 132.167,46.5 130.5,46.5C 130.5,53.1667 130.5,59.8333 130.5,66.5C 124.974,66.8214 119.64,66.4881 114.5,65.5C 119.5,65.5 124.5,65.5 129.5,65.5C 129.5,59.5 129.5,53.5 129.5,47.5C 129.97,46.3065 130.97,45.6399 132.5,45.5C 133.726,45.5195 134.726,45.8529 135.5,46.5 Z"/></g>
<g><path style="opacity:1" fill="#1c073f" d="M 89.5,46.5 C 87.1667,46.5 84.8333,46.5 82.5,46.5C 82.5,53.1667 82.5,59.8333 82.5,66.5C 76.9738,66.8214 71.6405,66.4881 66.5,65.5C 71.5,65.5 76.5,65.5 81.5,65.5C 81.5,59.5 81.5,53.5 81.5,47.5C 82.3339,46.2521 83.6672,45.5854 85.5,45.5C 87.0451,45.5108 88.3784,45.8442 89.5,46.5 Z"/></g>
<g><path style="opacity:1" fill="#1c073f" d="M 41.5,46.5 C 39.1667,46.5 36.8333,46.5 34.5,46.5C 34.5,53.1667 34.5,59.8333 34.5,66.5C 28.9738,66.8214 23.6405,66.4881 18.5,65.5C 23.5,65.5 28.5,65.5 33.5,65.5C 33.5,59.5 33.5,53.5 33.5,47.5C 34.3339,46.2521 35.6672,45.5854 37.5,45.5C 39.0451,45.5108 40.3784,45.8442 41.5,46.5 Z"/></g>
<g><path style="opacity:1" fill="#6dfefc" d="M 105.5,41.5 C 105.5,43.5 105.5,45.5 105.5,47.5C 104.511,52.9753 104.178,58.642 104.5,64.5C 99.6367,64.1805 94.97,64.5139 90.5,65.5C 89.5098,59.3554 89.1765,53.0221 89.5,46.5C 88.3784,45.8442 87.0451,45.5108 85.5,45.5C 83.6672,45.5854 82.3339,46.2521 81.5,47.5C 80.5111,52.9753 80.1778,58.642 80.5,64.5C 75.6367,64.1805 70.97,64.5139 66.5,65.5C 65.508,58.0182 65.1746,50.3516 65.5,42.5C 78.9125,42.8142 92.2459,42.4808 105.5,41.5 Z"/></g>
<g><path style="opacity:1" fill="#3ffe82" d="M 81.5,47.5 C 81.5,53.5 81.5,59.5 81.5,65.5C 76.5,65.5 71.5,65.5 66.5,65.5C 70.97,64.5139 75.6367,64.1805 80.5,64.5C 80.1778,58.642 80.5111,52.9753 81.5,47.5 Z"/></g>
<g><path style="opacity:1" fill="#6dfefc" d="M 57.5,41.5 C 57.5,43.5 57.5,45.5 57.5,47.5C 56.5111,52.9753 56.1778,58.642 56.5,64.5C 51.6367,64.1805 46.97,64.5139 42.5,65.5C 41.5098,59.3554 41.1765,53.0221 41.5,46.5C 40.3784,45.8442 39.0451,45.5108 37.5,45.5C 35.6672,45.5854 34.3339,46.2521 33.5,47.5C 32.5111,52.9753 32.1778,58.642 32.5,64.5C 27.6367,64.1805 22.97,64.5139 18.5,65.5C 17.508,58.0182 17.1746,50.3516 17.5,42.5C 30.9125,42.8142 44.2459,42.4808 57.5,41.5 Z"/></g>
<g><path style="opacity:1" fill="#3ffe82" d="M 33.5,47.5 C 33.5,53.5 33.5,59.5 33.5,65.5C 28.5,65.5 23.5,65.5 18.5,65.5C 22.97,64.5139 27.6367,64.1805 32.5,64.5C 32.1778,58.642 32.5111,52.9753 33.5,47.5 Z"/></g>
<g><path style="opacity:1" fill="#6e01fc" d="M 185.5,29.5 C 185.5,30.8333 185.5,32.1667 185.5,33.5C 185.5,34.8333 185.5,36.1667 185.5,37.5C 185.5,38.8333 185.5,40.1667 185.5,41.5C 185.666,46.1785 185.499,50.8452 185,55.5C 182.707,58.1339 180.54,58.1339 178.5,55.5C 178.334,46.4938 178.5,37.4938 179,28.5C 181.864,25.5983 184.031,25.9316 185.5,29.5 Z"/></g>
<g><path style="opacity:1" fill="#6cfefc" d="M 113.5,44.5 C 126.833,44.5 140.167,44.5 153.5,44.5C 153.5,45.8333 153.5,47.1667 153.5,48.5C 152.512,53.6405 152.179,58.9738 152.5,64.5C 147.637,64.1805 142.97,64.5139 138.5,65.5C 137.672,59.6807 137.172,53.6807 137,47.5C 136.617,46.944 136.117,46.6107 135.5,46.5C 134.726,45.8529 133.726,45.5195 132.5,45.5C 130.97,45.6399 129.97,46.3065 129.5,47.5C 128.511,52.9753 128.178,58.642 128.5,64.5C 123.637,64.1805 118.97,64.5139 114.5,65.5C 113.509,58.6866 113.175,51.6866 113.5,44.5 Z"/></g>
<g><path style="opacity:1" fill="#3ffe82" d="M 129.5,47.5 C 129.5,53.5 129.5,59.5 129.5,65.5C 124.5,65.5 119.5,65.5 114.5,65.5C 118.97,64.5139 123.637,64.1805 128.5,64.5C 128.178,58.642 128.511,52.9753 129.5,47.5 Z"/></g>
<g><path style="opacity:1" fill="#86edfe" d="M 152.5,40.5 C 152.328,41.4916 152.662,42.1583 153.5,42.5C 153.5,42.8333 153.5,43.1667 153.5,43.5C 153.5,43.8333 153.5,44.1667 153.5,44.5C 140.167,44.5 126.833,44.5 113.5,44.5C 113.5,43.1667 113.5,41.8333 113.5,40.5C 126.807,40.4663 139.807,40.4663 152.5,40.5 Z"/></g>
<g><path style="opacity:1" fill="#86e2ff" d="M 209.5,39.5 C 214.833,39.5 220.167,39.5 225.5,39.5C 225.5,40.8333 225.5,42.1667 225.5,43.5C 220.167,43.5 214.833,43.5 209.5,43.5C 209.5,42.1667 209.5,40.8333 209.5,39.5 Z"/></g>
<g><path style="opacity:1" fill="#8bd7ff" d="M 105.5,37.5 C 105.5,38.8333 105.5,40.1667 105.5,41.5C 92.2459,42.4808 78.9125,42.8142 65.5,42.5C 65.5,41.1667 65.5,39.8333 65.5,38.5C 78.9125,38.8142 92.2459,38.4808 105.5,37.5 Z"/></g>
<g><path style="opacity:1" fill="#8bd7ff" d="M 57.5,37.5 C 57.5,38.8333 57.5,40.1667 57.5,41.5C 44.2459,42.4808 30.9125,42.8142 17.5,42.5C 17.5,41.1667 17.5,39.8333 17.5,38.5C 30.9125,38.8142 44.2459,38.4808 57.5,37.5 Z"/></g>
<g><path style="opacity:1" fill="#8accff" d="M 233.5,37.5 C 238.833,37.5 244.167,37.5 249.5,37.5C 249.5,38.8333 249.5,40.1667 249.5,41.5C 244.167,41.5 238.833,41.5 233.5,41.5C 233.5,40.1667 233.5,38.8333 233.5,37.5 Z"/></g>
<g><path style="opacity:1" fill="#8accff" d="M 185.5,37.5 C 190.833,37.5 196.167,37.5 201.5,37.5C 201.5,38.8333 201.5,40.1667 201.5,41.5C 196.167,41.5 190.833,41.5 185.5,41.5C 185.5,40.1667 185.5,38.8333 185.5,37.5 Z"/></g>
<g><path style="opacity:1" fill="#8accff" d="M 161.5,37.5 C 166.833,37.5 172.167,37.5 177.5,37.5C 177.5,38.8333 177.5,40.1667 177.5,41.5C 172.167,41.5 166.833,41.5 161.5,41.5C 161.5,40.5 161.5,39.5 161.5,38.5C 161.5,38.1667 161.5,37.8333 161.5,37.5 Z"/></g>
<g><path style="opacity:1" fill="#8ebffe" d="M 113.5,35.5 C 118.833,35.5 124.167,35.5 129.5,35.5C 130.918,37.3079 132.918,37.9746 135.5,37.5C 141.252,35.6448 147.252,34.9781 153.5,35.5C 153.784,37.4147 153.451,39.0813 152.5,40.5C 139.807,40.4663 126.807,40.4663 113.5,40.5C 113.5,39.1667 113.5,37.8333 113.5,36.5C 113.5,36.1667 113.5,35.8333 113.5,35.5 Z"/></g>
<g><path style="opacity:1" fill="#8db6ff" d="M 209.5,35.5 C 214.833,35.5 220.167,35.5 225.5,35.5C 225.5,36.8333 225.5,38.1667 225.5,39.5C 220.167,39.5 214.833,39.5 209.5,39.5C 209.5,38.1667 209.5,36.8333 209.5,35.5 Z"/></g>
<g><path style="opacity:1" fill="#94acff" d="M 89.5,33.5 C 94.8333,33.5 100.167,33.5 105.5,33.5C 105.5,34.8333 105.5,36.1667 105.5,37.5C 92.2459,38.4808 78.9125,38.8142 65.5,38.5C 65.5,37.5 65.5,36.5 65.5,35.5C 70.8333,35.5 76.1667,35.5 81.5,35.5C 83.6353,37.369 86.3019,38.0356 89.5,37.5C 89.5,36.1667 89.5,34.8333 89.5,33.5 Z"/></g>
<g><path style="opacity:1" fill="#94acff" d="M 41.5,33.5 C 46.8333,33.5 52.1667,33.5 57.5,33.5C 57.5,34.8333 57.5,36.1667 57.5,37.5C 44.2459,38.4808 30.9125,38.8142 17.5,38.5C 17.5,37.5 17.5,36.5 17.5,35.5C 22.8333,35.5 28.1667,35.5 33.5,35.5C 35.6353,37.369 38.3019,38.0356 41.5,37.5C 41.5,36.1667 41.5,34.8333 41.5,33.5 Z"/></g>
<g><path style="opacity:1" fill="#91a0ff" d="M 233.5,33.5 C 238.833,33.5 244.167,33.5 249.5,33.5C 249.5,34.8333 249.5,36.1667 249.5,37.5C 244.167,37.5 238.833,37.5 233.5,37.5C 233.5,36.1667 233.5,34.8333 233.5,33.5 Z"/></g>
<g><path style="opacity:1" fill="#91a0ff" d="M 185.5,33.5 C 190.833,33.5 196.167,33.5 201.5,33.5C 201.5,34.8333 201.5,36.1667 201.5,37.5C 196.167,37.5 190.833,37.5 185.5,37.5C 185.5,36.1667 185.5,34.8333 185.5,33.5 Z"/></g>
<g><path style="opacity:1" fill="#91a0ff" d="M 161.5,33.5 C 166.833,33.5 172.167,33.5 177.5,33.5C 177.5,34.8333 177.5,36.1667 177.5,37.5C 172.167,37.5 166.833,37.5 161.5,37.5C 161.5,36.1667 161.5,34.8333 161.5,33.5 Z"/></g>
<g><path style="opacity:1" fill="#958aff" d="M 209.5,31.5 C 214.833,31.5 220.167,31.5 225.5,31.5C 225.5,32.8333 225.5,34.1667 225.5,35.5C 220.167,35.5 214.833,35.5 209.5,35.5C 209.5,34.1667 209.5,32.8333 209.5,31.5 Z"/></g>
<g><path style="opacity:1" fill="#958aff" d="M 113.5,31.5 C 118.833,31.5 124.167,31.5 129.5,31.5C 129.5,32.8333 129.5,34.1667 129.5,35.5C 124.167,35.5 118.833,35.5 113.5,35.5C 113.5,34.1667 113.5,32.8333 113.5,31.5 Z"/></g>
<g><path style="opacity:1" fill="#958aff" d="M 65.5,31.5 C 70.8333,31.5 76.1667,31.5 81.5,31.5C 81.5,32.8333 81.5,34.1667 81.5,35.5C 76.1667,35.5 70.8333,35.5 65.5,35.5C 65.5,34.5 65.5,33.5 65.5,32.5C 65.5,32.1667 65.5,31.8333 65.5,31.5 Z"/></g>
<g><path style="opacity:1" fill="#958aff" d="M 17.5,31.5 C 22.8333,31.5 28.1667,31.5 33.5,31.5C 33.5,32.8333 33.5,34.1667 33.5,35.5C 28.1667,35.5 22.8333,35.5 17.5,35.5C 17.5,34.1667 17.5,32.8333 17.5,31.5 Z"/></g>
<g><path style="opacity:1" fill="#9974ff" d="M 233.5,29.5 C 238.833,29.5 244.167,29.5 249.5,29.5C 249.5,30.8333 249.5,32.1667 249.5,33.5C 244.167,33.5 238.833,33.5 233.5,33.5C 233.5,32.1667 233.5,30.8333 233.5,29.5 Z"/></g>
<g><path style="opacity:1" fill="#9974ff" d="M 185.5,29.5 C 190.833,29.5 196.167,29.5 201.5,29.5C 201.5,30.8333 201.5,32.1667 201.5,33.5C 196.167,33.5 190.833,33.5 185.5,33.5C 185.5,32.1667 185.5,30.8333 185.5,29.5 Z"/></g>
<g><path style="opacity:1" fill="#9974ff" d="M 177.5,33.5 C 172.167,33.5 166.833,33.5 161.5,33.5C 161.5,32.1667 161.5,30.8333 161.5,29.5C 166.833,29.5 172.167,29.5 177.5,29.5C 177.5,30.8333 177.5,32.1667 177.5,33.5 Z"/></g>
<g><path style="opacity:1" fill="#997cff" d="M 153.5,35.5 C 147.252,34.9781 141.252,35.6448 135.5,37.5C 137.226,35.1799 137.893,32.5133 137.5,29.5C 142.833,29.5 148.167,29.5 153.5,29.5C 153.5,31.5 153.5,33.5 153.5,35.5 Z"/></g>
<g><path style="opacity:1" fill="#9974ff" d="M 105.5,33.5 C 100.167,33.5 94.8333,33.5 89.5,33.5C 89.5,32.1667 89.5,30.8333 89.5,29.5C 94.8333,29.5 100.167,29.5 105.5,29.5C 105.5,30.8333 105.5,32.1667 105.5,33.5 Z"/></g>
<g><path style="opacity:1" fill="#9974ff" d="M 57.5,33.5 C 52.1667,33.5 46.8333,33.5 41.5,33.5C 41.5,32.1667 41.5,30.8333 41.5,29.5C 46.8333,29.5 52.1667,29.5 57.5,29.5C 57.5,30.8333 57.5,32.1667 57.5,33.5 Z"/></g>
<g><path style="opacity:1" fill="#703dbd" d="M 226.5,30.5 C 226.5,42.5 226.5,54.5 226.5,66.5C 220.974,66.8214 215.64,66.4881 210.5,65.5C 215.5,65.5 220.5,65.5 225.5,65.5C 225.5,59.5 225.5,53.5 225.5,47.5C 225.5,46.1667 225.5,44.8333 225.5,43.5C 225.5,42.1667 225.5,40.8333 225.5,39.5C 225.5,38.1667 225.5,36.8333 225.5,35.5C 225.5,34.1667 225.5,32.8333 225.5,31.5C 220.167,31.5 214.833,31.5 209.5,31.5C 209.5,31.1667 209.5,30.8333 209.5,30.5C 209.5,29.5 209.5,28.5 209.5,27.5C 214.833,27.5 220.167,27.5 225.5,27.5C 225.263,28.791 225.596,29.791 226.5,30.5 Z"/></g>
<g><path style="opacity:1" fill="#9d5dff" d="M 129.5,31.5 C 124.167,31.5 118.833,31.5 113.5,31.5C 113.5,30.1667 113.5,28.8333 113.5,27.5C 118.833,27.5 124.167,27.5 129.5,27.5C 129.5,28.8333 129.5,30.1667 129.5,31.5 Z"/></g>
<g><path style="opacity:1" fill="#9d5dff" d="M 81.5,31.5 C 76.1667,31.5 70.8333,31.5 65.5,31.5C 65.5,30.1667 65.5,28.8333 65.5,27.5C 70.8333,27.5 76.1667,27.5 81.5,27.5C 81.5,28.8333 81.5,30.1667 81.5,31.5 Z"/></g>
<g><path style="opacity:1" fill="#9d5dff" d="M 17.5,27.5 C 22.8333,27.5 28.1667,27.5 33.5,27.5C 33.5,28.8333 33.5,30.1667 33.5,31.5C 28.1667,31.5 22.8333,31.5 17.5,31.5C 17.5,30.1667 17.5,28.8333 17.5,27.5 Z"/></g>
<g><path style="opacity:1" fill="#5401f7" d="M 425.5,29.5 C 425.5,30.8333 425.5,32.1667 425.5,33.5C 425.5,34.8333 425.5,36.1667 425.5,37.5C 425.5,38.8333 425.5,40.1667 425.5,41.5C 425.174,49.6841 425.508,57.6841 426.5,65.5C 439.5,65.5 452.5,65.5 465.5,65.5C 465.5,63.1667 465.5,60.8333 465.5,58.5C 457.5,57.8333 449.5,57.1667 441.5,56.5C 442.479,53.3752 442.813,50.0419 442.5,46.5C 444.833,46.5 447.167,46.5 449.5,46.5C 450.473,44.0521 450.806,41.3854 450.5,38.5C 451.833,38.5 453.167,38.5 454.5,38.5C 456.573,45.9763 453.906,50.3097 446.5,51.5C 453.859,52.1984 461.192,52.8651 468.5,53.5C 470.042,55.879 470.709,58.5457 470.5,61.5C 470.333,63.5 470.167,65.5 470,67.5C 469.5,68.6667 468.667,69.5 467.5,70C 452.833,70.6667 438.167,70.6667 423.5,70C 422.333,69.5 421.5,68.6667 421,67.5C 420.667,60.5 420.333,53.5 420,46.5C 417.349,49.076 414.182,50.4093 410.5,50.5C 410.79,56.561 410.457,62.561 409.5,68.5C 408.975,69.1924 408.308,69.6924 407.5,70C 400.833,70.6667 394.167,70.6667 387.5,70C 386.692,69.6924 386.025,69.1924 385.5,68.5C 384.543,62.561 384.21,56.561 384.5,50.5C 380.574,50.9534 377.408,49.6201 375,46.5C 374.8,53.8826 374.3,61.2159 373.5,68.5C 372.975,69.1924 372.308,69.6924 371.5,70C 368.167,70.1667 364.833,70.3333 361.5,70.5C 349.83,70.3998 338.164,70.0665 326.5,69.5C 325.808,68.9747 325.308,68.3081 325,67.5C 324.667,60.5 324.333,53.5 324,46.5C 322.421,48.0412 320.587,49.2078 318.5,50C 313.177,50.4994 307.844,50.666 302.5,50.5C 302.666,56.1764 302.499,61.8431 302,67.5C 301.692,68.3081 301.192,68.9747 300.5,69.5C 293.167,70.8333 285.833,70.8333 278.5,69.5C 277.808,68.9747 277.308,68.3081 277,67.5C 276.5,56.8385 276.333,46.1719 276.5,35.5C 278.292,35.366 279.958,35.6993 281.5,36.5C 281.5,37.8333 281.5,39.1667 281.5,40.5C 281.5,41.8333 281.5,43.1667 281.5,44.5C 281.175,51.6866 281.509,58.6866 282.5,65.5C 287.64,66.4881 292.974,66.8214 298.5,66.5C 298.5,59.8333 298.5,53.1667 298.5,46.5C 304.167,46.5 309.833,46.5 315.5,46.5C 318.675,46.1601 320.841,44.4934 322,41.5C 322.816,36.3158 322.65,31.3158 321.5,26.5C 321.5,24.8333 321.5,23.1667 321.5,21.5C 323.833,21.5 326.167,21.5 328.5,21.5C 328.205,23.7354 328.539,25.7354 329.5,27.5C 329.5,28.8333 329.5,30.1667 329.5,31.5C 329.5,32.8333 329.5,34.1667 329.5,35.5C 329.5,36.5 329.5,37.5 329.5,38.5C 329.5,39.8333 329.5,41.1667 329.5,42.5C 329.175,50.3516 329.508,58.0182 330.5,65.5C 335.64,66.4881 340.974,66.8214 346.5,66.5C 346.5,59.8333 346.5,53.1667 346.5,46.5C 348.833,46.5 351.167,46.5 353.5,46.5C 353.177,53.0221 353.51,59.3554 354.5,65.5C 359.64,66.4881 364.974,66.8214 370.5,66.5C 370.5,53.5 370.5,40.5 370.5,27.5C 372.5,27.5 374.5,27.5 376.5,27.5C 376.263,28.791 376.596,29.791 377.5,30.5C 377.5,30.8333 377.5,31.1667 377.5,31.5C 377.5,32.8333 377.5,34.1667 377.5,35.5C 377.171,38.2282 377.837,40.5615 379.5,42.5C 381.891,45.917 385.225,47.2503 389.5,46.5C 389.177,53.0221 389.51,59.3554 390.5,65.5C 395.64,66.4881 400.974,66.8214 406.5,66.5C 406.5,59.8333 406.5,53.1667 406.5,46.5C 408.857,46.6633 411.19,46.4966 413.5,46C 415.751,45.2525 417.084,43.7525 417.5,41.5C 418.827,33.7651 418.827,25.9317 417.5,18C 420.099,17.231 422.599,17.3977 425,18.5C 425.499,22.1516 425.665,25.8183 425.5,29.5 Z"/></g>
<g><path style="opacity:1" fill="#29fe34" d="M 465.5,58.5 C 465.5,60.8333 465.5,63.1667 465.5,65.5C 452.5,65.5 439.5,65.5 426.5,65.5C 438.989,64.5046 451.656,64.1713 464.5,64.5C 464.205,62.2646 464.539,60.2646 465.5,58.5 Z"/></g>
<g><path style="opacity:1" fill="#30fd4a" d="M 297.5,55.5 C 297.5,58.8333 297.5,62.1667 297.5,65.5C 292.5,65.5 287.5,65.5 282.5,65.5C 286.97,64.5139 291.637,64.1805 296.5,64.5C 296.19,61.2869 296.523,58.2869 297.5,55.5 Z"/></g>
<g><path style="opacity:1" fill="#3ffe82" d="M 405.5,47.5 C 405.5,53.5 405.5,59.5 405.5,65.5C 400.5,65.5 395.5,65.5 390.5,65.5C 394.97,64.5139 399.637,64.1805 404.5,64.5C 404.178,58.642 404.511,52.9753 405.5,47.5 Z"/></g>
<g><path style="opacity:1" fill="#3ffe82" d="M 369.5,47.5 C 369.5,53.5 369.5,59.5 369.5,65.5C 364.5,65.5 359.5,65.5 354.5,65.5C 358.97,64.5139 363.637,64.1805 368.5,64.5C 368.178,58.642 368.511,52.9753 369.5,47.5 Z"/></g>
<g><path style="opacity:1" fill="#6bfdfb" d="M 449.5,40.5 C 449.5,42.1667 449.5,43.8333 449.5,45.5C 446.833,45.5 444.167,45.5 441.5,45.5C 441.5,49.1667 441.5,52.8333 441.5,56.5C 449.5,57.1667 457.5,57.8333 465.5,58.5C 464.539,60.2646 464.205,62.2646 464.5,64.5C 451.656,64.1713 438.989,64.5046 426.5,65.5C 425.508,57.6841 425.174,49.6841 425.5,41.5C 433.586,41.8005 441.586,41.4672 449.5,40.5 Z"/></g>
<g><path style="opacity:1" fill="#1f0647" d="M 449.5,45.5 C 449.5,45.8333 449.5,46.1667 449.5,46.5C 447.167,46.5 444.833,46.5 442.5,46.5C 442.813,50.0419 442.479,53.3752 441.5,56.5C 441.5,52.8333 441.5,49.1667 441.5,45.5C 444.167,45.5 446.833,45.5 449.5,45.5 Z"/></g>
<g><path style="opacity:1" fill="#20084b" d="M 416.5,40.5 C 416.833,40.5 417.167,40.5 417.5,40.5C 417.5,40.8333 417.5,41.1667 417.5,41.5C 417.084,43.7525 415.751,45.2525 413.5,46C 411.19,46.4966 408.857,46.6633 406.5,46.5C 406.5,53.1667 406.5,59.8333 406.5,66.5C 400.974,66.8214 395.64,66.4881 390.5,65.5C 395.5,65.5 400.5,65.5 405.5,65.5C 405.5,59.5 405.5,53.5 405.5,47.5C 407.716,45.7675 410.382,44.7675 413.5,44.5C 415.262,43.7377 416.262,42.4044 416.5,40.5 Z"/></g>
<g><path style="opacity:1" fill="#1c073f" d="M 353.5,46.5 C 351.167,46.5 348.833,46.5 346.5,46.5C 346.5,53.1667 346.5,59.8333 346.5,66.5C 340.974,66.8214 335.64,66.4881 330.5,65.5C 335.5,65.5 340.5,65.5 345.5,65.5C 345.5,59.5 345.5,53.5 345.5,47.5C 346.334,46.2521 347.667,45.5854 349.5,45.5C 351.045,45.5108 352.378,45.8442 353.5,46.5 Z"/></g>
<g><path style="opacity:1" fill="#1a0738" d="M 315.5,45.5 C 315.5,45.8333 315.5,46.1667 315.5,46.5C 309.833,46.5 304.167,46.5 298.5,46.5C 298.5,53.1667 298.5,59.8333 298.5,66.5C 292.974,66.8214 287.64,66.4881 282.5,65.5C 287.5,65.5 292.5,65.5 297.5,65.5C 297.5,62.1667 297.5,58.8333 297.5,55.5C 297.5,52.1667 297.5,48.8333 297.5,45.5C 303.5,45.5 309.5,45.5 315.5,45.5 Z"/></g>
<g><path style="opacity:1" fill="#67fefa" d="M 317.5,44.5 C 316.833,44.8333 316.167,45.1667 315.5,45.5C 309.5,45.5 303.5,45.5 297.5,45.5C 297.5,48.8333 297.5,52.1667 297.5,55.5C 296.523,58.2869 296.19,61.2869 296.5,64.5C 291.637,64.1805 286.97,64.5139 282.5,65.5C 281.509,58.6866 281.175,51.6866 281.5,44.5C 293.723,44.4259 305.723,44.4259 317.5,44.5 Z"/></g>
<g><path style="opacity:1" fill="#6dfefc" d="M 369.5,41.5 C 369.5,43.5 369.5,45.5 369.5,47.5C 368.511,52.9753 368.178,58.642 368.5,64.5C 363.637,64.1805 358.97,64.5139 354.5,65.5C 353.51,59.3554 353.177,53.0221 353.5,46.5C 352.378,45.8442 351.045,45.5108 349.5,45.5C 347.667,45.5854 346.334,46.2521 345.5,47.5C 344.511,52.9753 344.178,58.642 344.5,64.5C 339.637,64.1805 334.97,64.5139 330.5,65.5C 329.508,58.0182 329.175,50.3516 329.5,42.5C 342.913,42.8142 356.246,42.4808 369.5,41.5 Z"/></g>
<g><path style="opacity:1" fill="#3ffe82" d="M 345.5,47.5 C 345.5,53.5 345.5,59.5 345.5,65.5C 340.5,65.5 335.5,65.5 330.5,65.5C 334.97,64.5139 339.637,64.1805 344.5,64.5C 344.178,58.642 344.511,52.9753 345.5,47.5 Z"/></g>
<g><path style="opacity:1" fill="#6bfefc" d="M 413.5,44.5 C 410.382,44.7675 407.716,45.7675 405.5,47.5C 404.511,52.9753 404.178,58.642 404.5,64.5C 399.637,64.1805 394.97,64.5139 390.5,65.5C 389.51,59.3554 389.177,53.0221 389.5,46.5C 388.391,45.71 387.058,45.21 385.5,45C 394.368,44.7922 403.202,44.2922 412,43.5C 412.765,43.5699 413.265,43.9033 413.5,44.5 Z"/></g>
<g><path style="opacity:1" fill="#7bdff0" d="M 416.5,40.5 C 416.262,42.4044 415.262,43.7377 413.5,44.5C 413.265,43.9033 412.765,43.5699 412,43.5C 403.202,44.2922 394.368,44.7922 385.5,45C 387.058,45.21 388.391,45.71 389.5,46.5C 385.225,47.2503 381.891,45.917 379.5,42.5C 379.611,41.8826 379.944,41.3826 380.5,41C 392.495,40.5001 404.495,40.3335 416.5,40.5 Z"/></g>
<g><path style="opacity:1" fill="#85ecfd" d="M 281.5,40.5 C 294.5,40.5 307.5,40.5 320.5,40.5C 320.262,42.4044 319.262,43.7377 317.5,44.5C 305.723,44.4259 293.723,44.4259 281.5,44.5C 281.5,43.1667 281.5,41.8333 281.5,40.5 Z"/></g>
<g><path style="opacity:1" fill="#8bd7ff" d="M 369.5,37.5 C 369.5,38.8333 369.5,40.1667 369.5,41.5C 356.246,42.4808 342.913,42.8142 329.5,42.5C 329.5,41.1667 329.5,39.8333 329.5,38.5C 342.913,38.8142 356.246,38.4808 369.5,37.5 Z"/></g>
<g><path style="opacity:1" fill="#8dbefe" d="M 377.5,35.5 C 382.833,35.5 388.167,35.5 393.5,35.5C 395.142,37.0808 397.142,37.7475 399.5,37.5C 405.252,35.6448 411.252,34.9781 417.5,35.5C 417.5,37.1667 417.5,38.8333 417.5,40.5C 417.167,40.5 416.833,40.5 416.5,40.5C 404.495,40.3335 392.495,40.5001 380.5,41C 379.944,41.3826 379.611,41.8826 379.5,42.5C 377.837,40.5615 377.171,38.2282 377.5,35.5 Z"/></g>
<g><path style="opacity:1" fill="#8ebffe" d="M 281.5,35.5 C 286.833,35.5 292.167,35.5 297.5,35.5C 298.918,37.3079 300.918,37.9746 303.5,37.5C 309.252,35.6448 315.252,34.9781 321.5,35.5C 321.784,37.4147 321.451,39.0813 320.5,40.5C 307.5,40.5 294.5,40.5 281.5,40.5C 281.5,39.1667 281.5,37.8333 281.5,36.5C 281.5,36.1667 281.5,35.8333 281.5,35.5 Z"/></g>
<g><path style="opacity:1" fill="#94acff" d="M 353.5,33.5 C 358.833,33.5 364.167,33.5 369.5,33.5C 369.5,34.8333 369.5,36.1667 369.5,37.5C 356.246,38.4808 342.913,38.8142 329.5,38.5C 329.5,37.5 329.5,36.5 329.5,35.5C 334.833,35.5 340.167,35.5 345.5,35.5C 347.635,37.369 350.302,38.0356 353.5,37.5C 353.5,36.1667 353.5,34.8333 353.5,33.5 Z"/></g>
<g><path style="opacity:1" fill="#968aff" d="M 377.5,31.5 C 382.833,31.5 388.167,31.5 393.5,31.5C 393.5,32.8333 393.5,34.1667 393.5,35.5C 388.167,35.5 382.833,35.5 377.5,35.5C 377.5,34.1667 377.5,32.8333 377.5,31.5 Z"/></g>
<g><path style="opacity:1" fill="#958aff" d="M 329.5,31.5 C 334.833,31.5 340.167,31.5 345.5,31.5C 345.5,32.8333 345.5,34.1667 345.5,35.5C 340.167,35.5 334.833,35.5 329.5,35.5C 329.5,34.1667 329.5,32.8333 329.5,31.5 Z"/></g>
<g><path style="opacity:1" fill="#997cff" d="M 417.5,35.5 C 411.252,34.9781 405.252,35.6448 399.5,37.5C 401.226,35.1799 401.893,32.5133 401.5,29.5C 406.833,29.5 412.167,29.5 417.5,29.5C 417.5,31.5 417.5,33.5 417.5,35.5 Z"/></g>
<g><path style="opacity:1" fill="#9974ff" d="M 369.5,33.5 C 364.167,33.5 358.833,33.5 353.5,33.5C 353.5,32.1667 353.5,30.8333 353.5,29.5C 358.833,29.5 364.167,29.5 369.5,29.5C 369.5,30.8333 369.5,32.1667 369.5,33.5 Z"/></g>
<g><path style="opacity:1" fill="#9d5dff" d="M 393.5,31.5 C 388.167,31.5 382.833,31.5 377.5,31.5C 377.5,31.1667 377.5,30.8333 377.5,30.5C 377.5,29.5 377.5,28.5 377.5,27.5C 382.833,27.5 388.167,27.5 393.5,27.5C 393.5,28.8333 393.5,30.1667 393.5,31.5 Z"/></g>
<g><path style="opacity:1" fill="#9d5dff" d="M 329.5,27.5 C 334.833,27.5 340.167,27.5 345.5,27.5C 345.5,28.8333 345.5,30.1667 345.5,31.5C 340.167,31.5 334.833,31.5 329.5,31.5C 329.5,30.1667 329.5,28.8333 329.5,27.5 Z"/></g>
<g><path style="opacity:1" fill="#4f00fd" d="M 506.5,35.5 C 506.667,46.1719 506.5,56.8385 506,67.5C 505.692,68.3081 505.192,68.9747 504.5,69.5C 497.167,70.8333 489.833,70.8333 482.5,69.5C 481.808,68.9747 481.308,68.3081 481,67.5C 480.501,61.5092 480.334,55.5092 480.5,49.5C 481.833,49.5 483.167,49.5 484.5,49.5C 484.5,55.1667 484.5,60.8333 484.5,66.5C 490.5,66.5 496.5,66.5 502.5,66.5C 502.5,56.1667 502.5,45.8333 502.5,35.5C 503.833,35.5 505.167,35.5 506.5,35.5 Z"/></g>
<g><path style="opacity:1" fill="#5700fc" d="M 554.5,31.5 C 554.667,43.5046 554.5,55.5046 554,67.5C 553.5,68.6667 552.667,69.5 551.5,70C 544.833,70.6667 538.167,70.6667 531.5,70C 530.692,69.6924 530.025,69.1924 529.5,68.5C 528.522,57.5516 528.189,46.5516 528.5,35.5C 530.292,35.366 531.958,35.6993 533.5,36.5C 533.5,37.5 533.5,38.5 533.5,39.5C 533.5,40.8333 533.5,42.1667 533.5,43.5C 533.175,51.0191 533.508,58.3524 534.5,65.5C 539.64,66.4881 544.974,66.8214 550.5,66.5C 550.5,54.8333 550.5,43.1667 550.5,31.5C 551.833,31.5 553.167,31.5 554.5,31.5 Z"/></g>
<g><path style="opacity:1" fill="#3ffe82" d="M 549.5,47.5 C 549.5,53.5 549.5,59.5 549.5,65.5C 544.5,65.5 539.5,65.5 534.5,65.5C 538.97,64.5139 543.637,64.1805 548.5,64.5C 548.178,58.642 548.511,52.9753 549.5,47.5 Z"/></g>
<g><path style="opacity:1" fill="#6bfefc" d="M 533.5,43.5 C 538.833,43.5 544.167,43.5 549.5,43.5C 549.5,44.8333 549.5,46.1667 549.5,47.5C 548.511,52.9753 548.178,58.642 548.5,64.5C 543.637,64.1805 538.97,64.5139 534.5,65.5C 533.508,58.3524 533.175,51.0191 533.5,43.5 Z"/></g>
<g><path style="opacity:1" fill="#86e2ff" d="M 533.5,39.5 C 538.833,39.5 544.167,39.5 549.5,39.5C 549.5,40.8333 549.5,42.1667 549.5,43.5C 544.167,43.5 538.833,43.5 533.5,43.5C 533.5,42.1667 533.5,40.8333 533.5,39.5 Z"/></g>
<g><path style="opacity:1" fill="#8db6ff" d="M 533.5,35.5 C 538.833,35.5 544.167,35.5 549.5,35.5C 549.5,36.8333 549.5,38.1667 549.5,39.5C 544.167,39.5 538.833,39.5 533.5,39.5C 533.5,38.5 533.5,37.5 533.5,36.5C 533.5,36.1667 533.5,35.8333 533.5,35.5 Z"/></g>
<g><path style="opacity:1" fill="#4f05eb" d="M 564.5,35.5 C 566.292,35.366 567.958,35.6993 569.5,36.5C 569.5,36.8333 569.5,37.1667 569.5,37.5C 569.5,38.8333 569.5,40.1667 569.5,41.5C 569.174,49.6841 569.508,57.6841 570.5,65.5C 583.5,65.5 596.5,65.5 609.5,65.5C 609.5,63.1667 609.5,60.8333 609.5,58.5C 601.5,57.8333 593.5,57.1667 585.5,56.5C 586.479,53.3752 586.813,50.0419 586.5,46.5C 588.833,46.5 591.167,46.5 593.5,46.5C 594.473,44.0521 594.806,41.3854 594.5,38.5C 595.833,38.5 597.167,38.5 598.5,38.5C 600.573,45.9763 597.906,50.3097 590.5,51.5C 597.859,52.1984 605.192,52.8651 612.5,53.5C 614.042,55.879 614.709,58.5457 614.5,61.5C 614.441,63.8912 614.107,66.2246 613.5,68.5C 612.975,69.1924 612.308,69.6924 611.5,70C 596.833,70.6667 582.167,70.6667 567.5,70C 566.333,69.5 565.5,68.6667 565,67.5C 564.5,56.8385 564.333,46.1719 564.5,35.5 Z"/></g>
<g><path style="opacity:1" fill="#29fe34" d="M 609.5,58.5 C 609.5,60.8333 609.5,63.1667 609.5,65.5C 596.5,65.5 583.5,65.5 570.5,65.5C 582.989,64.5046 595.656,64.1713 608.5,64.5C 608.205,62.2646 608.539,60.2646 609.5,58.5 Z"/></g>
<g><path style="opacity:1" fill="#6bfdfb" d="M 593.5,40.5 C 593.5,42.1667 593.5,43.8333 593.5,45.5C 590.833,45.5 588.167,45.5 585.5,45.5C 585.5,49.1667 585.5,52.8333 585.5,56.5C 593.5,57.1667 601.5,57.8333 609.5,58.5C 608.539,60.2646 608.205,62.2646 608.5,64.5C 595.656,64.1713 582.989,64.5046 570.5,65.5C 569.508,57.6841 569.174,49.6841 569.5,41.5C 577.586,41.8005 585.586,41.4672 593.5,40.5 Z"/></g>
<g><path style="opacity:1" fill="#1f0647" d="M 593.5,45.5 C 593.5,45.8333 593.5,46.1667 593.5,46.5C 591.167,46.5 588.833,46.5 586.5,46.5C 586.813,50.0419 586.479,53.3752 585.5,56.5C 585.5,52.8333 585.5,49.1667 585.5,45.5C 588.167,45.5 590.833,45.5 593.5,45.5 Z"/></g>
</svg>
